<svg xmlns="http://www.w3.org/2000/svg" xmlns:xlink="http://www.w3.org/1999/xlink" width="200" zoomAndPan="magnify" viewBox="0 0 150 74.999997" height="100" preserveAspectRatio="xMidYMid meet" version="1.0"><defs><g/><clipPath id="414eb8d943"><path d="M 66 13 L 84 13 L 84 62.480469 L 66 62.480469 Z M 66 13 " clip-rule="nonzero"/></clipPath><clipPath id="9bd3792773"><path d="M 49.261719 19 L 67 19 L 67 33 L 49.261719 33 Z M 49.261719 19 " clip-rule="nonzero"/></clipPath></defs><rect x="-15" width="180" fill="#ffffff" y="-7.5" height="89.999996" fill-opacity="1"/><rect x="-15" width="180" fill="#ffffff" y="-7.5" height="89.999996" fill-opacity="1"/><rect x="-15" width="180" fill="#ffffff" y="-7.5" height="89.999996" fill-opacity="1"/><g clip-path="url(#414eb8d943)"><path fill="#a9d8df" d="M 82.671875 22.023438 C 82.074219 22.023438 81.59375 22.5 81.59375 23.089844 C 81.59375 27.261719 81.269531 28.820312 77.5625 30.652344 C 77.003906 30.929688 77.289062 31.167969 75.566406 31.386719 L 75.566406 26.171875 C 79.011719 25.664062 81.273438 23.054688 81.273438 19.894531 C 81.273438 16.371094 78.539062 13.503906 74.976562 13.503906 C 71.417969 13.503906 68.492188 16.371094 68.492188 19.894531 C 68.492188 23.050781 70.398438 25.664062 73.84375 26.171875 L 73.84375 31.027344 C 73.84375 30.90625 73.410156 30.792969 73.125 30.652344 C 69.261719 28.742188 68.625 27.007812 68.625 23.089844 C 68.625 22.5 68.171875 22.023438 67.574219 22.023438 C 66.980469 22.023438 66.511719 22.5 66.511719 23.089844 C 66.511719 27.484375 67.410156 30.15625 72.265625 32.558594 C 72.402344 32.625 72.53125 32.671875 72.664062 32.738281 C 70.492188 33.675781 68.679688 35.003906 68.679688 37.992188 C 68.679688 40.066406 70.382812 41.300781 72.402344 42.25 C 70.382812 43.210938 68.679688 44.441406 68.679688 46.511719 C 68.679688 48.582031 70.382812 49.816406 72.402344 50.769531 C 70.382812 51.726562 68.679688 52.957031 68.679688 55.027344 C 68.679688 57.035156 70.03125 58.28125 71.726562 59.058594 C 71.707031 59.136719 71.679688 59.207031 71.679688 59.285156 C 71.679688 59.875 72.054688 60.351562 72.648438 60.351562 C 73.054688 60.351562 73.847656 60.332031 73.847656 60.292969 L 73.847656 61.414062 C 73.847656 62.007812 74.113281 62.480469 74.710938 62.480469 C 75.304688 62.480469 75.570312 62.007812 75.570312 61.414062 L 75.570312 60.203125 C 77.292969 60.34375 77.933594 60.351562 78.046875 60.351562 C 78.644531 60.351562 79.289062 59.875 79.289062 59.285156 C 79.289062 59.105469 79.308594 58.9375 79.226562 58.785156 C 80.570312 57.964844 81.558594 56.761719 81.558594 55.027344 C 81.558594 52.957031 79.875 51.726562 77.859375 50.769531 C 79.878906 49.816406 81.589844 48.582031 81.589844 46.511719 C 81.589844 44.441406 79.894531 43.210938 77.875 42.25 C 79.894531 41.300781 81.597656 40.066406 81.597656 37.992188 C 81.597656 35.097656 80.15625 33.761719 78.269531 32.8125 C 78.464844 32.722656 78.660156 32.652344 78.851562 32.558594 C 83.753906 30.132812 83.753906 27.332031 83.753906 23.089844 C 83.746094 22.5 83.265625 22.023438 82.671875 22.023438 Z M 70.617188 37.992188 C 70.617188 36.074219 72.121094 35.324219 73.84375 34.46875 L 73.84375 40.664062 C 72.121094 39.917969 70.617188 39.097656 70.617188 37.992188 Z M 70.617188 46.511719 C 70.617188 45.40625 72.121094 44.582031 73.84375 43.84375 L 73.84375 49.183594 C 72.121094 48.4375 70.617188 47.617188 70.617188 46.511719 Z M 70.617188 55.027344 C 70.617188 53.921875 72.121094 53.101562 73.84375 52.359375 L 73.84375 57.652344 C 72.121094 57.191406 70.617188 56.386719 70.617188 55.027344 Z M 78.796875 55.027344 C 78.796875 56.546875 77.289062 57.339844 75.566406 57.757812 L 75.566406 52.359375 C 77.289062 53.101562 78.796875 53.921875 78.796875 55.027344 Z M 78.796875 46.511719 C 78.796875 47.617188 77.289062 48.4375 75.566406 49.179688 L 75.566406 43.839844 C 77.289062 44.582031 78.796875 45.40625 78.796875 46.511719 Z M 78.796875 37.992188 C 78.796875 39.097656 77.289062 39.917969 75.566406 40.664062 L 75.566406 34.226562 C 79.011719 35.164062 78.796875 35.855469 78.796875 37.992188 Z M 78.796875 37.992188 " fill-opacity="1" fill-rule="nonzero"/></g><g clip-path="url(#9bd3792773)"><path fill="#a9d8df" d="M 65.449219 19.042969 L 50.378906 19.042969 C 49.78125 19.042969 49.300781 19.414062 49.300781 20.003906 C 49.300781 20.335938 49.457031 28.21875 62.957031 32.671875 C 63.066406 32.707031 63.183594 32.699219 63.296875 32.699219 C 63.601562 32.699219 63.902344 32.554688 64.109375 32.320312 C 64.394531 31.992188 64.453125 31.523438 64.257812 31.140625 C 62.324219 27.316406 64.359375 23.441406 66.34375 20.492188 C 66.5625 20.164062 66.585938 19.847656 66.398438 19.503906 C 66.207031 19.152344 65.84375 19.042969 65.449219 19.042969 Z M 65.449219 19.042969 " fill-opacity="1" fill-rule="nonzero"/></g><path fill="#a9d8df" d="M 99.894531 19.042969 L 84.824219 19.042969 C 84.429688 19.042969 84.0625 19.152344 83.875 19.5 C 83.6875 19.84375 83.710938 20.214844 83.929688 20.539062 C 85.914062 23.488281 87.949219 27.332031 86.015625 31.15625 C 85.820312 31.539062 85.878906 31.992188 86.164062 32.316406 C 86.371094 32.554688 86.671875 32.675781 86.976562 32.675781 C 87.089844 32.675781 87.207031 32.65625 87.316406 32.621094 C 100.816406 28.167969 100.972656 20.339844 100.972656 20.003906 C 100.972656 19.414062 100.492188 19.042969 99.894531 19.042969 Z M 99.894531 19.042969 " fill-opacity="1" fill-rule="nonzero"/><g fill="#000000" fill-opacity="1"><g transform="translate(59.901454, 44.449374)"><g><path d="M 8.332031 -6.339844 C 7.617188 -7.289062 6.480469 -7.90625 5.203125 -7.90625 L 4.28125 -7.90625 C 3.746094 -7.90625 3.308594 -8.34375 3.308594 -8.882812 L 3.308594 -8.976562 C 3.308594 -9.511719 3.746094 -9.953125 4.28125 -9.953125 L 5.601562 -9.953125 C 7.125 -9.953125 8.359375 -11.226562 8.359375 -12.890625 L 4.28125 -12.890625 C 2.128906 -12.890625 0.371094 -11.132812 0.371094 -8.976562 L 0.371094 -8.882812 C 0.371094 -8.003906 0.660156 -7.191406 1.152344 -6.535156 C 1.867188 -5.585938 2.992188 -4.96875 4.28125 -4.96875 L 5.203125 -4.96875 C 5.722656 -4.96875 6.175781 -4.53125 6.175781 -4.007812 L 6.175781 -3.898438 C 6.175781 -3.375 5.722656 -2.921875 5.203125 -2.921875 L 3.554688 -2.921875 C 2.03125 -2.921875 0.796875 -1.660156 0.796875 0 L 5.203125 0 C 7.355469 0 9.113281 -1.742188 9.113281 -3.898438 L 9.113281 -4.007812 C 9.113281 -4.871094 8.824219 -5.683594 8.332031 -6.339844 Z M 8.332031 -6.339844 "/></g></g></g><g fill="#000000" fill-opacity="1"><g transform="translate(69.248726, 44.449374)"><g><path d="M 2.703125 -12.835938 C 1.167969 -12.835938 -0.0703125 -11.695312 -0.0703125 -10.035156 L 3.515625 -10.035156 L 3.515625 0 C 5.175781 0 6.519531 -1.234375 6.519531 -2.757812 L 6.519531 -10.035156 L 7.328125 -10.035156 C 8.867188 -10.035156 10.101562 -11.171875 10.101562 -12.835938 Z M 2.703125 -12.835938 "/></g></g></g><g fill="#000000" fill-opacity="1"><g transform="translate(79.309739, 44.449374)"><g><path d="M 5.3125 -13.054688 L 3.542969 -13.054688 C 3.542969 -13.054688 3.542969 -13.054688 3.527344 -13.054688 L 3.226562 -13.054688 L 3.226562 -13.039062 C 1.703125 -12.890625 0.6875 -11.679688 0.6875 -10.226562 L 0.6875 0.0976562 C 0.6875 0.0976562 0.699219 0.0976562 0.699219 0.0976562 L 5.3125 0.0976562 C 8.015625 0.0976562 10.0625 -1.90625 10.0625 -4.28125 L 10.0625 -8.304688 C 10.0625 -11.308594 8.015625 -13.054688 5.3125 -13.054688 Z M 7.273438 -4.734375 C 7.273438 -3.652344 6.394531 -2.691406 5.3125 -2.691406 L 3.542969 -2.691406 C 3.542969 -2.703125 3.542969 -2.730469 3.542969 -2.746094 L 3.542969 -10.265625 L 5.3125 -10.265625 C 6.394531 -10.265625 7.273438 -9.304688 7.273438 -8.222656 Z M 7.273438 -4.734375 "/></g></g></g></svg>